<svg id="visual" viewBox="0 0 900 600" width="900" height="600" xmlns="http://www.w3.org/2000/svg" xmlns:xlink="http://www.w3.org/1999/xlink" version="1.1"><g stroke-width="1" stroke-linejoin="bevel"><path d="M470 395L546 502L607 298Z" fill="#0a3044" stroke="#0a3044"></path><path d="M607 298L524 234L470 395Z" fill="#043f5a" stroke="#043f5a"></path><path d="M823 480L685 241L607 298Z" fill="#091822" stroke="#091822"></path><path d="M607 298L685 241L524 234Z" fill="#073a53" stroke="#073a53"></path><path d="M546 502L823 480L607 298Z" fill="#043f5a" stroke="#043f5a"></path><path d="M379 600L493 600L546 502Z" fill="#09354b" stroke="#09354b"></path><path d="M546 502L493 600L657 600Z" fill="#0b2636" stroke="#0b2636"></path><path d="M657 600L682 600L546 502Z" fill="#0b2636" stroke="#0b2636"></path><path d="M682 600L823 480L546 502Z" fill="#010d16" stroke="#010d16"></path><path d="M524 234L418 185L470 395Z" fill="#043f5a" stroke="#043f5a"></path><path d="M470 395L379 600L546 502Z" fill="#0b2636" stroke="#0b2636"></path><path d="M611 114L418 185L524 234Z" fill="#09354b" stroke="#09354b"></path><path d="M283 395L379 600L470 395Z" fill="#0b2b3d" stroke="#0b2b3d"></path><path d="M685 241L611 114L524 234Z" fill="#010d16" stroke="#010d16"></path><path d="M279 250L283 395L470 395Z" fill="#073a53" stroke="#073a53"></path><path d="M823 480L900 412L685 241Z" fill="#091822" stroke="#091822"></path><path d="M685 241L676 89L611 114Z" fill="#073a53" stroke="#073a53"></path><path d="M900 146L676 89L685 241Z" fill="#043f5a" stroke="#043f5a"></path><path d="M419 0L260 157L418 185Z" fill="#043f5a" stroke="#043f5a"></path><path d="M418 185L279 250L470 395Z" fill="#0a1d29" stroke="#0a1d29"></path><path d="M900 412L900 284L685 241Z" fill="#091822" stroke="#091822"></path><path d="M823 480L900 600L900 412Z" fill="#073a53" stroke="#073a53"></path><path d="M682 600L900 600L823 480Z" fill="#0b212f" stroke="#0b212f"></path><path d="M543 0L418 185L611 114Z" fill="#091822" stroke="#091822"></path><path d="M418 185L260 157L279 250Z" fill="#0b2b3d" stroke="#0b2b3d"></path><path d="M279 250L148 354L283 395Z" fill="#073a53" stroke="#073a53"></path><path d="M676 89L543 0L611 114Z" fill="#06131c" stroke="#06131c"></path><path d="M900 284L900 146L685 241Z" fill="#043f5a" stroke="#043f5a"></path><path d="M676 89L722 0L543 0Z" fill="#043f5a" stroke="#043f5a"></path><path d="M900 146L722 0L676 89Z" fill="#0b2636" stroke="#0b2636"></path><path d="M543 0L419 0L418 185Z" fill="#043f5a" stroke="#043f5a"></path><path d="M99 226L148 354L279 250Z" fill="#0a1d29" stroke="#0a1d29"></path><path d="M283 395L156 600L379 600Z" fill="#091822" stroke="#091822"></path><path d="M108 531L156 600L283 395Z" fill="#0b2b3d" stroke="#0b2b3d"></path><path d="M148 354L108 531L283 395Z" fill="#0b2b3d" stroke="#0b2b3d"></path><path d="M260 157L99 226L279 250Z" fill="#09354b" stroke="#09354b"></path><path d="M419 0L269 0L260 157Z" fill="#0a1d29" stroke="#0a1d29"></path><path d="M213 0L99 226L260 157Z" fill="#073a53" stroke="#073a53"></path><path d="M148 354L0 427L108 531Z" fill="#010d16" stroke="#010d16"></path><path d="M900 146L900 0L722 0Z" fill="#073a53" stroke="#073a53"></path><path d="M269 0L213 0L260 157Z" fill="#0a1d29" stroke="#0a1d29"></path><path d="M0 323L0 427L148 354Z" fill="#0a1d29" stroke="#0a1d29"></path><path d="M108 531L0 600L156 600Z" fill="#0b2636" stroke="#0b2636"></path><path d="M0 152L0 323L99 226Z" fill="#043f5a" stroke="#043f5a"></path><path d="M99 226L0 323L148 354Z" fill="#073a53" stroke="#073a53"></path><path d="M0 427L0 600L108 531Z" fill="#0a1d29" stroke="#0a1d29"></path><path d="M213 0L0 152L99 226Z" fill="#0b2636" stroke="#0b2636"></path><path d="M213 0L0 0L0 152Z" fill="#09354b" stroke="#09354b"></path></g></svg>