<svg id="visual" viewBox="0 0 900 600" width="900" height="600" xmlns="http://www.w3.org/2000/svg" xmlns:xlink="http://www.w3.org/1999/xlink" version="1.1"><g stroke-width="1" stroke-linejoin="bevel"><path d="M486 367L549 244L454 197Z" fill="#032e42" stroke="#032e42"></path><path d="M454 197L284 366L486 367Z" fill="#061217" stroke="#061217"></path><path d="M454 197L225 258L284 366Z" fill="#013249" stroke="#013249"></path><path d="M687 389L704 287L549 244Z" fill="#061217" stroke="#061217"></path><path d="M549 244L616 98L454 197Z" fill="#061217" stroke="#061217"></path><path d="M454 197L359 0L298 140Z" fill="#052a3c" stroke="#052a3c"></path><path d="M704 287L616 98L549 244Z" fill="#000508" stroke="#000508"></path><path d="M225 258L265 404L284 366Z" fill="#091a23" stroke="#091a23"></path><path d="M284 366L372 530L486 367Z" fill="#061217" stroke="#061217"></path><path d="M486 367L687 389L549 244Z" fill="#032e42" stroke="#032e42"></path><path d="M640 509L687 389L486 367Z" fill="#08161d" stroke="#08161d"></path><path d="M298 140L225 258L454 197Z" fill="#08222f" stroke="#08222f"></path><path d="M265 404L372 530L284 366Z" fill="#000508" stroke="#000508"></path><path d="M372 530L640 509L486 367Z" fill="#091e29" stroke="#091e29"></path><path d="M616 98L526 0L454 197Z" fill="#000508" stroke="#000508"></path><path d="M526 0L359 0L454 197Z" fill="#000508" stroke="#000508"></path><path d="M0 345L101 381L225 258Z" fill="#013249" stroke="#013249"></path><path d="M290 600L400 600L372 530Z" fill="#052a3c" stroke="#052a3c"></path><path d="M372 530L400 600L640 509Z" fill="#052a3c" stroke="#052a3c"></path><path d="M775 80L660 0L616 98Z" fill="#061217" stroke="#061217"></path><path d="M616 98L660 0L526 0Z" fill="#08222f" stroke="#08222f"></path><path d="M704 287L775 80L616 98Z" fill="#013249" stroke="#013249"></path><path d="M900 189L775 80L704 287Z" fill="#08222f" stroke="#08222f"></path><path d="M80 600L290 600L265 404Z" fill="#091a23" stroke="#091a23"></path><path d="M265 404L290 600L372 530Z" fill="#08161d" stroke="#08161d"></path><path d="M640 509L764 600L687 389Z" fill="#032e42" stroke="#032e42"></path><path d="M687 389L900 348L704 287Z" fill="#030c11" stroke="#030c11"></path><path d="M400 600L671 600L640 509Z" fill="#052a3c" stroke="#052a3c"></path><path d="M225 258L101 381L265 404Z" fill="#000508" stroke="#000508"></path><path d="M90 98L225 258L298 140Z" fill="#030c11" stroke="#030c11"></path><path d="M102 0L90 98L298 140Z" fill="#000508" stroke="#000508"></path><path d="M671 600L764 600L640 509Z" fill="#091e29" stroke="#091e29"></path><path d="M900 0L800 0L775 80Z" fill="#091e29" stroke="#091e29"></path><path d="M775 80L800 0L660 0Z" fill="#091a23" stroke="#091a23"></path><path d="M900 461L900 348L687 389Z" fill="#000508" stroke="#000508"></path><path d="M900 348L900 189L704 287Z" fill="#030c11" stroke="#030c11"></path><path d="M359 0L102 0L298 140Z" fill="#013249" stroke="#013249"></path><path d="M764 600L900 461L687 389Z" fill="#032e42" stroke="#032e42"></path><path d="M90 98L0 345L225 258Z" fill="#08222f" stroke="#08222f"></path><path d="M101 381L80 600L265 404Z" fill="#091e29" stroke="#091e29"></path><path d="M0 74L0 345L90 98Z" fill="#091e29" stroke="#091e29"></path><path d="M0 502L80 600L101 381Z" fill="#013249" stroke="#013249"></path><path d="M900 189L900 0L775 80Z" fill="#091a23" stroke="#091a23"></path><path d="M102 0L0 74L90 98Z" fill="#030c11" stroke="#030c11"></path><path d="M0 345L0 502L101 381Z" fill="#08161d" stroke="#08161d"></path><path d="M764 600L900 600L900 461Z" fill="#032e42" stroke="#032e42"></path><path d="M102 0L0 0L0 74Z" fill="#013249" stroke="#013249"></path><path d="M0 502L0 600L80 600Z" fill="#08222f" stroke="#08222f"></path></g></svg>